<svg width="88" height="88" viewBox="0 0 88 88" fill="none" xmlns="http://www.w3.org/2000/svg">
<path d="M77.0671 47.893L67.7256 36.9137C68.3309 34.3405 70.0062 25.2497 65.6249 17.7791C62.9041 13.1384 58.384 10.0464 52.1922 8.5895C29.2178 3.18721 17.9136 13.7341 15.1466 20.0649C12.6232 25.8288 10.2884 35.0821 12.0117 42.1911C13.1158 46.754 15.5204 49.9438 17.6411 52.7581C20.0248 55.92 22.0826 58.6504 22.0826 62.7267V78.938C22.0826 79.6621 22.6687 80.2481 23.3928 80.2481H51.8917C52.6158 80.2481 53.2019 79.6621 53.2019 78.938V71.4936C57.2914 72.7732 65.9507 74.8913 68.0226 70.6681C68.0226 70.6681 68.0225 70.6673 68.0234 70.6673C69.2087 68.2443 70.4874 56.1069 70.884 52.0881L76.5282 49.9709C76.9282 49.8215 77.2296 49.4861 77.3361 49.073C77.4445 48.6572 77.3431 48.2179 77.0671 47.893ZM69.2 49.9194C68.7309 50.0949 68.4034 50.5229 68.3562 51.0208C67.7579 57.2694 66.5001 67.8137 65.6712 69.5126C64.658 71.5783 57.2765 70.2157 52.3363 68.4391C51.9336 68.2941 51.4882 68.3544 51.1388 68.5998C50.7894 68.8453 50.5815 69.2453 50.5815 69.6715V77.626H24.703V62.725C24.703 57.7717 22.2888 54.5687 19.733 51.1789C17.6691 48.4406 15.5344 45.6089 14.5579 41.5727C12.9883 35.0969 15.1867 26.5048 17.5468 21.1139C22.7753 9.15112 40.7709 8.59386 51.5921 11.1391C57.0529 12.4248 61.0123 15.0993 63.3575 19.0901C64.686 21.3506 65.3734 23.8233 65.687 26.1886C65.2546 25.7685 64.5742 25.689 64.0501 26.0358C64.0326 26.048 62.2735 27.2106 59.6322 28.5635C58.9885 28.8928 58.7334 29.6833 59.0636 30.327C59.2959 30.7795 59.7545 31.0398 60.2305 31.0398C60.4314 31.0398 60.6358 30.9935 60.8271 30.8948C63.5977 29.4754 65.4232 28.2692 65.4992 28.2185C65.6433 28.1233 65.7594 28.0028 65.852 27.8691C66.1665 32.7692 65.0476 36.822 65.0292 36.8858C64.9096 37.3068 65.0074 37.7609 65.2913 38.0946L73.8633 48.1698L69.2 49.9194Z" fill="black"/>
<path d="M38.3941 41.143C38.3435 40.4216 37.7303 39.8643 36.9948 39.9281C36.2734 39.9787 35.7292 40.605 35.7799 41.3273C35.9782 44.1486 36.9337 47.362 38.6203 50.8785C38.8457 51.3484 39.3139 51.6227 39.803 51.6227C39.9934 51.6227 40.1856 51.5808 40.3681 51.4934C41.0206 51.1807 41.2957 50.3981 40.983 49.7456C39.4405 46.5278 38.5697 43.6332 38.3941 41.143Z" fill="black"/>
<path d="M51.0453 31.9753C48.9481 32.5316 46.7129 32.7946 44.7398 33.026C43.6856 33.15 42.6898 33.2662 41.7657 33.4182C41.0521 33.5352 40.5682 34.2095 40.6862 34.924C40.7918 35.566 41.3473 36.0211 41.9771 36.0211C42.0479 36.0211 42.1195 36.0158 42.192 36.0036C43.0558 35.8612 44.0219 35.7486 45.0455 35.628C47.1051 35.3861 49.4399 35.1127 51.7318 34.5039L51.7396 34.5021C52.434 34.3091 52.8384 33.5929 52.6498 32.8976C52.4602 32.2015 51.7388 31.7901 51.0453 31.9753Z" fill="black"/>
<path d="M45.7679 57.7386C45.3496 57.1481 44.5311 57.0084 43.9416 57.4268C43.3511 57.8451 43.2122 58.6627 43.6297 59.2531C45.4404 61.8088 46.8449 63.437 46.9043 63.5051C47.1628 63.8038 47.5279 63.9575 47.8948 63.9575C48.1988 63.9575 48.5036 63.8518 48.7516 63.6378C49.2984 63.1644 49.3587 62.3373 48.8853 61.7896C48.8713 61.7748 47.4991 60.1834 45.7679 57.7386Z" fill="black"/>
</svg>
