<svg width="88" height="88" viewBox="0 0 88 88" fill="none" xmlns="http://www.w3.org/2000/svg">
<path d="M39.5013 7.68072C39.5013 6.95302 38.9123 6.36401 38.1846 6.36401H11.8504C11.1227 6.36401 10.5337 6.95302 10.5337 7.68072V63.1475C10.5337 71.0425 16.9566 77.4663 24.8516 77.4663H25.1623C33.0687 77.4663 39.5013 71.0346 39.5013 63.1282V7.68072ZM13.1671 24.7979H36.8679V49.3765H13.1671V24.7979ZM36.8679 8.99743V22.1645H13.1671V8.99743H36.8679ZM25.1632 74.8328H24.8525C18.4085 74.8328 13.1671 69.5906 13.1671 63.1475V52.0099H36.8679V63.1282C36.8679 69.5827 31.6168 74.8328 25.1632 74.8328Z" fill="black"/>
<path d="M44.2098 61.1163C44.4661 61.3691 44.7997 61.4955 45.1341 61.4955C45.4747 61.4955 45.8135 61.3647 46.0716 61.104L72.6279 34.18C73.1326 33.6673 73.1326 32.844 72.6279 32.3313L54.682 14.1353C54.1869 13.6332 53.3021 13.6341 52.8061 14.1353L44.1966 22.8651C43.6857 23.383 43.6919 24.2169 44.2098 24.7269C44.7259 25.2369 45.5607 25.2316 46.0725 24.7137L53.7445 16.9346L69.8417 33.2539L44.1966 59.2536C43.6857 59.7715 43.6919 60.6054 44.2098 61.1163Z" fill="black"/>
<path d="M79.4414 50.2544H61.0074C60.2806 50.2544 59.6907 50.8443 59.6907 51.5711C59.6907 52.2979 60.2806 52.8878 61.0074 52.8878H78.1247V76.5886H39.0623C38.3346 76.5886 37.7456 77.1784 37.7456 77.9053C37.7456 78.6321 38.3346 79.222 39.0623 79.222H79.4414C80.1682 79.222 80.7581 78.6321 80.7581 77.9053V51.5711C80.7581 50.8443 80.1682 50.2544 79.4414 50.2544Z" fill="black"/>
<path d="M25.0174 59.0322C22.355 59.0322 20.1895 61.1987 20.1895 63.8602C20.1895 66.5217 22.355 68.6881 25.0174 68.6881C27.6798 68.6881 29.8453 66.5217 29.8453 63.8602C29.8453 61.1987 27.6798 59.0322 25.0174 59.0322ZM25.0174 66.0547C23.8078 66.0547 22.8229 65.0707 22.8229 63.8602C22.8229 62.6497 23.8078 61.6656 25.0174 61.6656C26.227 61.6656 27.2119 62.6497 27.2119 63.8602C27.2119 65.0707 26.227 66.0547 25.0174 66.0547Z" fill="black"/>
</svg>
