<svg width="88" height="88" viewBox="0 0 88 88" fill="none" xmlns="http://www.w3.org/2000/svg">
<path d="M28.3985 39.5298C28.4861 39.5298 28.4861 39.5298 28.5738 39.5298C28.6614 39.5298 28.7491 39.5298 28.8367 39.5298C32.255 44.4381 37.8646 47.5059 44.0877 47.5059C50.6614 47.5059 56.4463 44.0875 59.7769 38.9162C62.1435 38.3903 64.5977 34.7967 65.0359 34.0078C66.4383 31.6413 67.0518 29.5377 67.0518 26.8206C67.0518 14.0238 56.6216 3.68115 43.9124 3.68115H43.8247C31.0279 3.68115 20.5977 14.0238 20.5977 26.8206V31.729C20.5977 33.8325 21.4742 35.8485 22.9642 37.3385C24.4542 38.7409 26.3825 39.5298 28.3985 39.5298ZM44.0877 44.8764C37.8646 44.8764 32.255 41.2827 29.6255 35.5855L31.0279 34.709C35.4104 31.9043 40.4941 28.7489 43.4741 25.5935C48.2072 20.6851 51.7132 16.9162 52.9403 15.6015C57.4104 18.4939 60.1275 23.4899 60.1275 28.9242C60.0399 37.6891 52.8526 44.8764 44.0877 44.8764ZM23.2271 26.8206C23.2271 15.5138 32.4303 6.31063 43.7371 6.31063H43.8247C55.1315 6.31063 64.3347 15.5138 64.3347 26.8206C64.3347 28.6612 64.0718 30.3266 62.757 32.6055C62.4941 32.9561 62.2311 33.3067 61.9682 33.7449C62.4064 32.2549 62.5817 30.6772 62.5817 29.0118C62.5817 22.7011 59.3387 16.8286 54.0797 13.4102C53.4662 12.972 52.8526 12.8843 52.3267 12.8843C51.7132 12.972 51.3626 13.4102 50.7491 14.0238C49.4343 15.4262 46.016 19.0198 41.4582 23.8405C38.6534 26.7329 33.5698 29.976 29.5379 32.5178L28.0479 33.482C27.522 33.8325 27.1714 34.3584 26.9961 34.972C26.8208 35.2349 26.7331 35.6732 26.9084 36.0238C26.9084 36.2867 26.9084 36.462 26.9084 36.725C26.1196 36.462 25.3307 36.0238 24.7172 35.4102C23.753 34.4461 23.1395 33.1314 23.1395 31.729L23.2271 26.8206Z" fill="black"/>
<path d="M43.8248 50.3984C26.032 50.3984 11.5698 64.8606 11.5698 82.6534C11.5698 83.3546 12.1834 83.9682 12.8846 83.9682H74.8527C75.5539 83.9682 76.1674 83.3546 76.1674 82.6534C76.0798 64.8606 61.6176 50.3984 43.8248 50.3984ZM60.0399 57.8486C57.6734 64.7729 51.1874 69.4184 43.8248 69.4184C36.4623 69.4184 29.9762 64.7729 27.6097 57.8486C32.2551 54.7809 37.8646 53.0279 43.8248 53.0279C49.785 53.0279 55.3945 54.7809 60.0399 57.8486ZM14.1993 81.3387C14.5499 72.4861 18.8447 64.5976 25.4184 59.4263C28.3985 67.0518 35.5858 72.0478 43.8248 72.0478C52.0638 72.0478 59.3387 67.0518 62.2312 59.4263C68.7172 64.5976 73.0121 72.4861 73.4503 81.3387H14.1993Z" fill="black"/>
</svg>
