<svg width="25" height="25" viewBox="0 0 25 25" fill="none" xmlns="http://www.w3.org/2000/svg">
<path d="M24.0452 12.0086C24.0452 15.1934 22.7801 18.2478 20.5281 20.4998C18.2761 22.7518 15.2217 24.0169 12.0369 24.0169C8.85209 24.0169 5.79772 22.7518 3.54572 20.4998C1.29372 18.2478 0.0285645 15.1934 0.0285645 12.0086C0.0285645 8.82377 1.29372 5.7694 3.54572 3.5174C5.79772 1.2654 8.85209 0.000244141 12.0369 0.000244141C15.2217 0.000244141 18.2761 1.2654 20.5281 3.5174C22.7801 5.7694 24.0452 8.82377 24.0452 12.0086ZM12.4677 8.8654C11.2999 9.35173 8.96427 10.3574 5.46384 11.8825C4.89644 12.1076 4.59774 12.3298 4.57072 12.5459C4.52569 12.9107 4.9835 13.0548 5.60644 13.2514L5.86912 13.334C6.48154 13.5336 7.30712 13.7663 7.73491 13.7753C8.12518 13.7843 8.55898 13.6252 9.03782 13.295C12.3086 11.0869 13.9973 9.97166 14.1023 9.94765C14.1774 9.92963 14.2825 9.90862 14.3515 9.97166C14.4221 10.0332 14.4145 10.1518 14.407 10.1833C14.362 10.3769 12.5653 12.0461 11.6361 12.9107C11.3464 13.1809 11.1408 13.3715 11.0987 13.4151C11.0062 13.5096 10.9121 13.6027 10.8166 13.6942C10.2462 14.2436 9.81986 14.6549 10.8391 15.3274C11.3299 15.6516 11.7232 15.9173 12.115 16.1845C12.5412 16.4757 12.9675 16.7654 13.5199 17.1286C13.6595 17.2187 13.7946 17.3163 13.9252 17.4093C14.4221 17.7636 14.8709 18.0818 15.4217 18.0308C15.743 18.0007 16.0747 17.7005 16.2428 16.7999C16.6406 14.6729 17.4226 10.0662 17.6028 8.16741C17.6138 8.00957 17.6072 7.85099 17.5832 7.69458C17.5691 7.56838 17.508 7.4521 17.4121 7.36886C17.2755 7.27458 17.1127 7.22573 16.9468 7.22926C16.4965 7.23677 15.8015 7.47843 12.4677 8.8654Z" fill="#3D3D3D"/>
</svg>
