<svg width="25" height="25" viewBox="0 0 25 25" fill="none" xmlns="http://www.w3.org/2000/svg">
<path d="M12.0655 0.000244141C5.43336 0.000244141 0.0571289 5.37647 0.0571289 12.0086C0.0571289 18.6407 5.43336 24.0169 12.0655 24.0169C18.6976 24.0169 24.0738 18.6407 24.0738 12.0086C24.0738 5.37647 18.6976 0.000244141 12.0655 0.000244141ZM16.6837 13.5484C16.6837 13.5484 17.7457 14.5966 18.0071 15.0832C18.0146 15.0932 18.0183 15.1032 18.0208 15.1082C18.1272 15.2871 18.1522 15.4259 18.0996 15.5298C18.0121 15.7024 17.7119 15.7874 17.6093 15.795H15.733C15.6029 15.795 15.3302 15.7612 15 15.5335C14.7461 15.3559 14.4959 15.0644 14.252 14.7805C13.888 14.3577 13.5728 13.9925 13.255 13.9925C13.2147 13.9924 13.1746 13.9987 13.1362 14.0112C12.896 14.0888 12.5883 14.4315 12.5883 15.3446C12.5883 15.6298 12.3632 15.7937 12.2043 15.7937H11.345C11.0523 15.7937 9.52745 15.6911 8.17651 14.2664C6.52286 12.5214 5.03433 9.0215 5.02182 8.98898C4.92801 8.76257 5.12189 8.64124 5.33329 8.64124H7.22835C7.48103 8.64124 7.56359 8.7951 7.62113 8.93144C7.68867 9.0903 7.93635 9.72199 8.34288 10.4325C9.00209 11.5908 9.40612 12.0611 9.73009 12.0611C9.79084 12.0604 9.8505 12.0449 9.90396 12.0161C10.3268 11.7809 10.248 10.2736 10.2292 9.96091C10.2292 9.90211 10.2279 9.28669 10.0115 8.99148C9.85643 8.77758 9.59249 8.69628 9.43238 8.66626C9.49719 8.57683 9.58257 8.50433 9.68131 8.45486C9.97151 8.30976 10.4944 8.2885 11.0135 8.2885H11.3024C11.8653 8.296 12.0104 8.33228 12.2143 8.38356C12.6271 8.48238 12.6359 8.74881 12.5996 9.6607C12.5883 9.91963 12.5771 10.2123 12.5771 10.5576C12.5771 10.6326 12.5733 10.7127 12.5733 10.7977C12.5608 11.2618 12.5458 11.7884 12.8735 12.0048C12.9163 12.0316 12.9657 12.0459 13.0161 12.0461C13.13 12.0461 13.4727 12.0461 14.4008 10.4537C14.6871 9.94121 14.9358 9.40862 15.1451 8.86014C15.1639 8.82762 15.2189 8.72755 15.2839 8.68877C15.3319 8.6643 15.3852 8.65185 15.4391 8.6525H17.6668C17.9095 8.6525 18.0759 8.68877 18.1072 8.78259C18.1622 8.93144 18.0971 9.38551 17.0802 10.7627L16.6261 11.3619C15.7042 12.5702 15.7042 12.6315 16.6837 13.5484Z" fill="#3D3D3D"/>
</svg>
