<svg width="25" height="25" viewBox="0 0 25 25" fill="none" xmlns="http://www.w3.org/2000/svg">
<path d="M0.0048194 24.0169L1.62835 18.0512C0.558569 16.2173 -0.00347117 14.1316 1.61299e-05 12.0086C1.61299e-05 5.37637 5.37614 0.000244141 12.0083 0.000244141C18.6405 0.000244141 24.0167 5.37637 24.0167 12.0086C24.0167 18.6408 18.6405 24.0169 12.0083 24.0169C9.8862 24.0203 7.80141 23.4587 5.96815 22.3898L0.0048194 24.0169ZM7.67454 6.37426C7.51946 6.38389 7.36793 6.42474 7.22903 6.49435C7.09876 6.56811 6.97985 6.66033 6.87598 6.76814C6.73188 6.90383 6.65023 7.02151 6.56257 7.13559C6.11875 7.71319 5.88002 8.42218 5.8841 9.15059C5.8865 9.739 6.0402 10.3118 6.28037 10.8474C6.77151 11.9305 7.57967 13.0773 8.64721 14.14C8.90419 14.3958 9.15516 14.6528 9.42535 14.8918C10.7503 16.0583 12.3293 16.8996 14.0365 17.3487L14.7198 17.4531C14.942 17.4652 15.1641 17.4483 15.3875 17.4375C15.7372 17.4195 16.0787 17.3248 16.3878 17.1601C16.545 17.0791 16.6985 16.991 16.8477 16.896C16.8477 16.896 16.8993 16.8623 16.9978 16.7879C17.1599 16.6678 17.2596 16.5825 17.3941 16.442C17.4937 16.3388 17.5802 16.2175 17.6462 16.0794C17.7399 15.8837 17.8336 15.5102 17.872 15.1992C17.9008 14.9614 17.8924 14.8317 17.8888 14.7513C17.884 14.6228 17.7771 14.4895 17.6607 14.4331L16.9618 14.1196C16.9618 14.1196 15.9171 13.6645 15.2794 13.3739C15.2122 13.3446 15.1401 13.3279 15.0669 13.3247C14.9847 13.3162 14.9017 13.3255 14.8234 13.3518C14.7451 13.3781 14.6733 13.4209 14.6129 13.4772V13.4748C14.6069 13.4748 14.5265 13.5432 13.6583 14.5952C13.6085 14.6621 13.5398 14.7127 13.4611 14.7405C13.3824 14.7683 13.2972 14.7721 13.2164 14.7513C13.1381 14.7303 13.0615 14.7039 12.987 14.672C12.8381 14.6096 12.7865 14.5856 12.6844 14.5411L12.6784 14.5387C11.9914 14.2388 11.3554 13.8336 10.7931 13.3379C10.6418 13.2058 10.5013 13.0617 10.3572 12.9224C9.88476 12.47 9.47304 11.9581 9.13235 11.3997L9.0615 11.2857C9.01061 11.209 8.96947 11.1263 8.93901 11.0395C8.89338 10.863 9.01226 10.7213 9.01226 10.7213C9.01226 10.7213 9.30407 10.4019 9.43976 10.2289C9.55275 10.0852 9.65816 9.93572 9.75558 9.78102C9.89728 9.55287 9.94171 9.3187 9.86726 9.13738C9.53102 8.31601 9.18278 7.49824 8.82493 6.68648C8.75408 6.52557 8.54394 6.41029 8.35301 6.38747C8.28816 6.38027 8.22332 6.37306 8.15847 6.36826C7.99721 6.36025 7.83561 6.36185 7.67454 6.37306V6.37426Z" fill="#3D3D3D"/>
</svg>
